<svg width="1440" height="652" viewBox="0 0 1440 652" fill="none" xmlns="http://www.w3.org/2000/svg">
<g filter="url(#filter0_d_188_56)">
<path d="M605 242.99C452.6 277.758 282.5 336.671 216.5 361.781L619 626.407L1394 512.927L1310 278.241C1252.17 276.309 1201 293.694 1112.5 312.526C1064.52 322.737 938 342.949 868.5 278.241C799 213.533 795.5 199.53 605 242.99Z" fill="#293D2D"/>
</g>
<g filter="url(#filter1_d_188_56)">
<path d="M965.574 570.095C1071.38 588.148 1196.76 593.731 1230 651.517H0V192.286C92.5 192.286 139 233.815 180.041 266.169C219.137 296.989 305.239 376.087 450.38 436.333C636.514 513.596 859.765 552.041 965.574 570.095Z" fill="#8D9790"/>
</g>
<g filter="url(#filter2_d_188_56)">
<path d="M568.5 473.516C473 491.57 312 594.214 282 652H1440V31C1388.5 60.9393 1331.5 107.297 1277.5 169.59C1246.52 205.324 1164.5 279.508 1033.5 339.755C865.5 417.018 664 455.463 568.5 473.516Z" fill="#44BE6F"/>
</g>
<defs>
<filter id="filter0_d_188_56" x="186.5" y="191.96" width="1237.5" height="468.447" filterUnits="userSpaceOnUse" color-interpolation-filters="sRGB">
<feFlood flood-opacity="0" result="BackgroundImageFix"/>
<feColorMatrix in="SourceAlpha" type="matrix" values="0 0 0 0 0 0 0 0 0 0 0 0 0 0 0 0 0 0 127 0" result="hardAlpha"/>
<feOffset dy="4"/>
<feGaussianBlur stdDeviation="15"/>
<feComposite in2="hardAlpha" operator="out"/>
<feColorMatrix type="matrix" values="0 0 0 0 0 0 0 0 0 0 0 0 0 0 0 0 0 0 0.25 0"/>
<feBlend mode="normal" in2="BackgroundImageFix" result="effect1_dropShadow_188_56"/>
<feBlend mode="normal" in="SourceGraphic" in2="effect1_dropShadow_188_56" result="shape"/>
</filter>
<filter id="filter1_d_188_56" x="-35" y="161.286" width="1300" height="529.231" filterUnits="userSpaceOnUse" color-interpolation-filters="sRGB">
<feFlood flood-opacity="0" result="BackgroundImageFix"/>
<feColorMatrix in="SourceAlpha" type="matrix" values="0 0 0 0 0 0 0 0 0 0 0 0 0 0 0 0 0 0 127 0" result="hardAlpha"/>
<feOffset dy="4"/>
<feGaussianBlur stdDeviation="17.5"/>
<feComposite in2="hardAlpha" operator="out"/>
<feColorMatrix type="matrix" values="0 0 0 0 0 0 0 0 0 0 0 0 0 0 0 0 0 0 0.25 0"/>
<feBlend mode="normal" in2="BackgroundImageFix" result="effect1_dropShadow_188_56"/>
<feBlend mode="normal" in="SourceGraphic" in2="effect1_dropShadow_188_56" result="shape"/>
</filter>
<filter id="filter2_d_188_56" x="247" y="0" width="1228" height="691" filterUnits="userSpaceOnUse" color-interpolation-filters="sRGB">
<feFlood flood-opacity="0" result="BackgroundImageFix"/>
<feColorMatrix in="SourceAlpha" type="matrix" values="0 0 0 0 0 0 0 0 0 0 0 0 0 0 0 0 0 0 127 0" result="hardAlpha"/>
<feOffset dy="4"/>
<feGaussianBlur stdDeviation="17.5"/>
<feComposite in2="hardAlpha" operator="out"/>
<feColorMatrix type="matrix" values="0 0 0 0 0 0 0 0 0 0 0 0 0 0 0 0 0 0 0.25 0"/>
<feBlend mode="normal" in2="BackgroundImageFix" result="effect1_dropShadow_188_56"/>
<feBlend mode="normal" in="SourceGraphic" in2="effect1_dropShadow_188_56" result="shape"/>
</filter>
</defs>
</svg>
